<?xml version="1.0" encoding="UTF-8" standalone="no"?>
<!-- Created with Inkscape (http://www.inkscape.org/) -->
<svg xmlns:inkscape="http://www.inkscape.org/namespaces/inkscape" xmlns:rdf="http://www.w3.org/1999/02/22-rdf-syntax-ns#" xmlns="http://www.w3.org/2000/svg" xmlns:xlink="http://www.w3.org/1999/xlink" xmlns:ns1="http://sozi.baierouge.fr" xmlns:cc="http://creativecommons.org/ns#" xmlns:sodipodi="http://sodipodi.sourceforge.net/DTD/sodipodi-0.dtd" xmlns:dc="http://purl.org/dc/elements/1.1/" id="svg2" xml:space="preserve" viewBox="0 0 49.55 66.15" version="1.1" inkscape:version="0.91 r13725">
  <g id="g10" transform="matrix(1.25 0 0 -1.25 0 66.15)">
    <g id="g12">
      <path id="path14" style="fill-rule:evenodd;fill:#c5bbae" d="m34.879 13.881c-0.613 0.371-1.746 0.664-3.399 0.879-1.574 0.16-2.386 0.254-2.441 0.281 1.281 0.371 2.652 0.305 4.121-0.199 1.547-0.055 3.707 1.211 6.481 3.801v-0.161l-0.039-0.203v-0.121c-0.028-0.051-0.043-0.117-0.043-0.199-0.239-0.746-0.918-1.68-2.039-2.801-1.012-1.039-1.68-1.613-2-1.718-0.243 0.082-0.426 0.175-0.559 0.281l-0.082 0.16zm-5.52 30.48-1.199-0.16c-2.586-0.32-4.812-0.441-6.68-0.359l-0.839 0.238c-0.801 0.348-2.321 0.613-4.563 0.801-0.371 0.105-0.906 0.48-1.598 1.117-0.242 0.375-0.441 0.734-0.601 1.082 0.535-0.32 1.242-0.762 2.121-1.32 0.719-0.371 1.387-0.559 2-0.559 4.719 0 7.785 0.16 9.199 0.481 1.176 0.265 2.016 0.918 2.52 1.957l0.242 0.043 0.039 0.039c0.027-0.028 0.055-0.067 0.078-0.121 0.137-0.321 0.242-0.758 0.32-1.321 0.082-0.613 0.082-1.121 0-1.519-0.183-0.106-0.41-0.215-0.679-0.32l-0.36-0.079zm-24.519-16.121c-0.985-0.054-1.695-0.066-2.121-0.039-0.344 0.426-0.653 1.039-0.918 1.84-0.188 0.586-0.281 0.984-0.281 1.199 0.347-0.265 0.679-0.8 1-1.601 0.535-0.664 1.574-1 3.121-1 0.879 0 1.851 0.187 2.918 0.562 0.586 0.184 1.363 0.465 2.32 0.84l-0.481-0.48c-0.371-0.586-0.839-0.973-1.398-1.161-0.426-0.132-1.121-0.199-2.078-0.199l-2.082 0.039zm6.039 1.801 0.199 0.16c0.297 0.16 0.641 0.172 1.043 0.039l-1.16-0.199h-0.082zm9.68-17.84 0.082 0.039 0.359 0.039 1.801-0.117 0.719 0.399c0.507 0.32 0.972 0.546 1.402 0.679 0.289 0.082 0.973 0.043 2.039-0.117 1.227-0.215 1.918-0.32 2.078-0.32 0.75 0 1.934 0.211 3.563 0.64l0.839-0.199c-0.8-0.961-2.707-1.496-5.718-1.601l-0.563 0.039-1.598 0.199-0.363 0.043c-1.812 0.051-3.293 0.09-4.437 0.117-0.133 0.027-0.254 0.043-0.36 0.043l-0.082 0.035 0.239 0.082z" inkscape:connector-curvature="0"/>
      <path id="path16" style="fill-rule:evenodd;fill:#877e74" d="m38.641 14.842c-0.266-0.375-0.786-1-1.563-1.883-0.797-0.906-1.332-1.492-1.598-1.762-0.32 0.215-0.574 1.082-0.761 2.602l0.16 0.082 0.082-0.16c0.133-0.11 0.316-0.199 0.559-0.281 0.32 0.105 0.988 0.679 2 1.718 1.121 1.121 1.8 2.055 2.039 2.801l-0.918-3.117zm-17.641-2.563-0.359-0.039-0.082-0.039c-0.211 0.133-0.426 0.266-0.637 0.399-1.176 0.773-2.524 1.187-4.043 1.242h-0.078v0.199c0.027 0.32 0.066 0.602 0.121 0.84 0.051 0.215 0.117 0.398 0.199 0.559 0.024 0.109 0.078 0.203 0.16 0.281 0.16 0.32 0.371 0.547 0.641 0.679-0.137-0.16-0.242-0.32-0.32-0.48 0.32 0.32 0.586 0.52 0.796 0.602 0.747 0.293 2.817 0.96 6.204 2 3.332 1.144 5.757 2.293 7.277 3.437l0.762 0.082c-1.469-1.496-3.641-2.883-6.52-4.16-3.148-1.199-5.293-2.082-6.441-2.641 0.105-0.242 0.48-0.558 1.121-0.961 0.558-0.347 0.961-1.011 1.199-2zm-8.879 35.52 0.758 0.961c0.828 0.238 4.48 0.465 10.961 0.68l1-0.04c0.695-0.027 1.121-0.082 1.281-0.16-1.309-0.773-3.601-1.226-6.883-1.359-3.785-0.133-5.691-0.199-5.718-0.199l0.441-1.481c-0.133 0.078-0.441 0.321-0.922 0.719-0.426 0.375-0.707 0.641-0.84 0.801l-0.078 0.078zm8.52-3.719 0.839-0.238c1.04-0.11 2.243-0.11 3.598 0 1.203 0.051 2.231 0.172 3.082 0.359l1.199 0.16c-0.797-0.48-1.464-0.734-2-0.761-1.519-0.133-3.504-0.465-5.957-1 0.239-0.16 0.664-0.321 1.278-0.481 0.586-0.133 1.121-0.211 1.601-0.238-1.492-0.563-2.519-0.84-3.082-0.84-1.332 0-2.293 0.133-2.879 0.399-0.851 0.375-1.508 0.601-1.961 0.679l-0.398 0.481-0.238 0.601 3.078-0.16c0.535 0 1.011 0.133 1.441 0.399-0.293 0.242-0.816 0.441-1.562 0.601l1.961 0.039zm-17.922-15.879c0.426-0.027 1.136-0.015 2.121 0.039 0.64-0.105 2.305-0.121 5-0.039-0.508-0.32-1.281-0.547-2.32-0.679-1.254-0.137-2.598-0.067-4.04 0.199-0.265 0.16-0.519 0.32-0.761 0.48zm-0.918 4.239 0.359 0.16h0.039c0.321 0.054 0.867 0.148 1.641 0.281 1.519 0.105 4.719 0.094 9.601-0.039 0-0.453-0.109-0.844-0.32-1.16-0.215-0.297-0.48-0.442-0.801-0.442l-0.039 0.36c-0.64-0.028-1.64 0.066-3 0.281-1.707 0.266-4.203 0.453-7.48 0.559zm22.437-21.282 0.961 0.762 0.36-0.039c-0.532-0.481-0.973-0.723-1.321-0.723zm9.203 2.082 0.161-0.039c0.078-0.082 0.132-0.176 0.16-0.281-0.297-0.453-0.563-0.828-0.801-1.121-0.426-0.504-0.816-0.758-1.16-0.758-1.629 0-3.176 0.215-4.641 0.641l0.559-0.039c3.015 0.105 4.922 0.636 5.722 1.597z" inkscape:connector-curvature="0"/>
      <path id="path18" style="fill-rule:evenodd;fill:#a99f92" d="m15.801 14.041c-0.028 0.184-0.039 0.359-0.039 0.52v0.039c0 0.265 0.117 0.547 0.359 0.84-0.082-0.161-0.148-0.348-0.199-0.559-0.055-0.242-0.094-0.52-0.121-0.84zm18.918-0.242c-0.746 0.293-2.254 0.375-4.52 0.242 0.188-0.027 0.989-0.226 2.403-0.601-1.629-0.426-2.817-0.641-3.563-0.641-0.16 0-0.851 0.109-2.078 0.32-1.066 0.16-1.75 0.199-2.039 0.121-0.43-0.133-0.895-0.359-1.402-0.679l-0.719-0.403-1.801 0.121c-0.238 0.985-0.641 1.653-1.199 2-0.641 0.399-1.016 0.719-1.121 0.961 1.148 0.559 3.293 1.438 6.441 2.641 2.879 1.277 5.051 2.664 6.52 4.16 0.238-0.027 1.558-0.176 3.957-0.441 2.32-0.559 3.668-1.547 4.043-2.961-2.774-2.586-4.934-3.852-6.481-3.801-1.469 0.508-2.84 0.574-4.121 0.203 0.055-0.027 0.867-0.121 2.441-0.281 1.653-0.215 2.786-0.508 3.399-0.883l-0.16-0.078zm-20.239 32.199-0.519 0.203-0.441 1.481c0.027 0 1.933 0.066 5.718 0.199 3.282 0.133 5.574 0.586 6.883 1.359 0.399-0.215 1.305-0.492 2.719-0.84 0.453-0.187 0.828-0.425 1.121-0.718l-0.242-0.043c-0.504-1.039-1.344-1.692-2.52-1.957-1.414-0.321-4.48-0.481-9.199-0.481-0.613 0-1.281 0.184-2 0.559-0.879 0.558-1.586 1-2.121 1.32 0.16-0.348 0.359-0.707 0.601-1.082zm7-2.156c1.868-0.082 4.094 0.039 6.68 0.359-0.851-0.187-1.879-0.308-3.082-0.359-1.359-0.11-2.558-0.11-3.598 0zm8.079-0.723c0.347 0.508 0.629 1.055 0.839 1.641 0.082 0.398 0.082 0.906 0 1.519-0.078 0.563-0.183 1-0.32 1.321 0.375-0.426 0.563-0.918 0.563-1.481 0-1.039-0.36-2.039-1.082-3zm-5.079-2.879-0.32-0.082 0.68 0.242-0.36-0.16zm-8.402 4.641c2.242-0.188 3.762-0.453 4.563-0.801l-1.961-0.039c-1.145 0.16-2.012 0.438-2.602 0.84zm-3.558-0.039c-0.399 0.851-0.598 1.613-0.598 2.277 0 0.082 0.066 0.227 0.199 0.442l-0.121-0.762c0-0.348 0.055-0.664 0.16-0.957 0.055-0.188 0.172-0.524 0.36-1zm10.039-5.082-0.36-0.078h-0.039l0.399 0.078zm-18.719-6.879 0.519 0.078c1.575 0.055 5.028 0.016 10.36-0.117h-1.278c-4.882 0.133-8.082 0.144-9.601 0.039zm-2.039-0.441c3.277-0.106 5.773-0.293 7.48-0.559 1.36-0.215 2.36-0.309 3-0.281l0.039-0.36-1.242-1.039-0.199-0.16h0.082l-0.563-0.48 0.481 0.48c-0.957-0.375-1.734-0.652-2.32-0.84-1.067-0.375-2.039-0.562-2.918-0.562-1.547 0-2.586 0.336-3.121 1-0.321 0.801-0.653 1.336-1 1.601 0.054 0.559 0.148 0.961 0.281 1.2zm23.398-20.52-0.961-0.762c-0.398-0.078-0.957-0.066-1.679 0.043l-2.161 0.879c0.11 0 0.227-0.012 0.364-0.039 1.144-0.027 2.625-0.066 4.437-0.121z" inkscape:connector-curvature="0"/>
      <path id="path20" style="fill-rule:evenodd;fill:#898176" d="m32.68 4.682c0 0.879-0.106 1.703-0.321 2.476l0.161 0.282 0.242 0.242 0.16 0.039 0.64 0.238 0.118-1.437c0.082-0.911 0.054-1.762-0.078-2.563l-0.282-0.918c-1.121-1.812-1.828-2.828-2.121-3.043l-0.437 0.043c0.343 0.801 0.613 1.344 0.797 1.641 0.269 0.265 0.586 0.863 0.961 1.797l0.16 1.203zm-8.961 0.597c-0.266 0.055-0.918 0.282-1.957 0.68-1.094 0.402-1.75 0.652-1.961 0.762 0.027 0.347 0.078 0.625 0.16 0.84 0.398-0.293 0.934-0.547 1.598-0.762 0.375-0.106 0.949-0.266 1.718-0.481l0.082-0.839c0.243 0.187 0.52 0.363 0.84 0.519l1-0.277h0.801c-0.32-0.055-0.668-0.11-1.039-0.16-0.723-0.133-1.133-0.227-1.242-0.282zm-8.559 7.36h0.039l-0.078-0.117-0.32-0.243-0.52-0.238c-0.347 0.024-0.586 0.184-0.722 0.481l0.043 0.796 1.558-0.679zm11.399 38.801c0-0.399-0.145-0.747-0.438-1.04s-0.656-0.441-1.082-0.441-0.785 0.148-1.078 0.441-0.441 0.641-0.441 1.04c0 0.402 0.148 0.746 0.441 1.039 0.293 0.296 0.652 0.441 1.078 0.441s0.789-0.145 1.082-0.441c0.293-0.293 0.438-0.637 0.438-1.039zm-4.161-12.399c0.215-0.961 0.27-1.976 0.161-3.043 0-0.105-0.067-0.398-0.2-0.879-0.105-0.504-0.171-0.961-0.199-1.359l0.918-0.16-0.238-0.16c-0.774-0.665-1.375-1.786-1.801-3.36-0.348-1.121-0.519-2.133-0.519-3.039l-0.079 2.277c0 1.067 0.145 2.27 0.438 3.602l0.281 0.719c0.774 1.093 1.176 1.867 1.199 2.32 0.055 0.75 0.028 1.723-0.078 2.922l-0.121 0.801h0.039l0.199-0.641zm-9.839 1.641c-0.184 0.238-0.371 0.476-0.559 0.718l-0.078-0.64-0.203 1.082c0.613-0.617 0.894-1 0.84-1.16zm15.363 9.039c-0.188 0.187-0.297 0.437-0.32 0.758v0.281l1.039-0.641c-0.028-0.078-0.149-0.277-0.36-0.597-0.109 0-0.226 0.066-0.359 0.199zm-18.684 1.277c0.481 0.668 1.067 1 1.762 1 0.508 0 1.535-0.066 3.078-0.199-0.879-0.024-1.773-0.414-2.68-1.16-1.093-1.117-1.785-1.707-2.078-1.758l-0.718 0.199c0 0.695 0.21 1.332 0.636 1.918zm0.082-2.797c0.133-0.136 0.2-0.293 0.2-0.48 0-0.188-0.067-0.36-0.2-0.52-0.16-0.136-0.332-0.203-0.519-0.203-0.188 0-0.348 0.067-0.481 0.203-0.16 0.16-0.242 0.332-0.242 0.52 0 0.187 0.082 0.344 0.242 0.48 0.133 0.16 0.293 0.239 0.481 0.239 0.187 0 0.359-0.079 0.519-0.239zm1.282-4.562c0-0.586-0.122-1.094-0.364-1.52-0.265-0.398-0.586-0.597-0.957-0.597-0.375 0-0.679 0.199-0.922 0.597-0.265 0.426-0.398 0.934-0.398 1.52s0.133 1.082 0.398 1.48c0.243 0.426 0.547 0.641 0.922 0.641 0.371 0 0.692-0.215 0.957-0.641 0.242-0.398 0.364-0.894 0.364-1.48zm-5.442-7.68c0.961 0.375 2.172 0.469 3.641 0.281-1.336-0.933-2.227-1.492-2.68-1.679-0.293-0.133-1.027-0.282-2.199-0.442l-0.723 0.121c0.348 0.801 1 1.375 1.961 1.719zm-4.16-2.559c-0.375-0.613-0.586-1.293-0.641-2.039l-0.078-0.121c-0.187-0.105-0.281 0.106-0.281 0.641 0 0.961 0.094 1.641 0.281 2.039 0.293 0.613 0.864 0.988 1.719 1.121-0.078-0.215-0.414-0.762-1-1.641zm9.238 2.559c0.188-0.184 0.297-0.453 0.321-0.801-0.028-0.183-0.184-0.304-0.481-0.359-0.238-0.024-0.437-0.024-0.598 0-0.082 0.082-0.132 0.254-0.16 0.519l0.918 0.641zm2.563 0 0.48-0.359c0.293-0.239 0.453-0.414 0.481-0.52-0.457-0.32-0.895-0.265-1.321 0.16l0.118 0.442 0.242 0.277zm1.84-7.801 0.078-1.238c0-0.535-0.117-1.039-0.36-1.52-0.398-0.746-0.64-1.242-0.718-1.48-0.481-0.988-0.813-1.934-1-2.84l-0.121-1.082 0.16 4.043 0.039 0.16c0.027 0.078 0.629 1.824 1.801 5.239l0.039-0.239 0.082-1.043zm-12.563-0.758c1.149-0.402 2.762-0.878 4.844-1.441-2.27 0.082-3.844 0.293-4.723 0.641-0.453 0.16-0.894 0.519-1.32 1.082 0.266 0 0.668-0.094 1.199-0.282zm13.883-7.242c0.293 0.028 0.504 0.082 0.641 0.16 0.746 0.27 1.625 0.789 2.636 1.563 0.91 0.691 1.469 1.039 1.684 1.039 0.531 0 1.023-0.492 1.48-1.48-0.242-1.04-0.91-1.719-2-2.04-0.214-0.082-0.867-0.16-1.961-0.242-0.695-0.105-1.441-0.48-2.242-1.117-0.906-0.773-1.465-1.199-1.679-1.281l-0.122 0.082c-0.078 0.051-0.117 0.238-0.117 0.558 0 0.239 0.067 0.586 0.199 1.04 0.215 0.718 0.532 1.265 0.961 1.64 0.024 0.027 0.2 0.055 0.52 0.078zm10.559 3.364c0-0.403-0.133-0.75-0.399-1.043-0.293-0.293-0.641-0.438-1.043-0.438-0.398 0-0.73 0.145-1 0.438-0.293 0.293-0.437 0.64-0.437 1.043 0 0.398 0.144 0.746 0.437 1.039 0.27 0.293 0.602 0.437 1 0.437 0.402 0 0.75-0.144 1.043-0.437 0.266-0.293 0.399-0.641 0.399-1.039zm4.878 0.757c0-0.214-0.144-0.398-0.437-0.558-0.293-0.133-0.652-0.199-1.082-0.199-0.426 0-0.785 0.066-1.078 0.199-0.293 0.16-0.442 0.347-0.442 0.558 0 0.215 0.149 0.387 0.442 0.52 0.293 0.16 0.652 0.242 1.078 0.242s0.785-0.082 1.082-0.242c0.293-0.133 0.437-0.305 0.437-0.52zm-4.039-18.199 0.121-0.601c-0.132-0.293-0.335-0.438-0.601-0.438h-0.559l-0.242 0.117 0.082 0.203c0.16 0.211 0.469 0.454 0.918 0.719h0.281z" inkscape:connector-curvature="0"/>
      <path id="path22" style="fill-rule:evenodd;fill:#726b63" d="m34.719 13.799c0.187-1.52 0.441-2.387 0.761-2.598 0.266 0.266 0.797 0.852 1.598 1.758 0.774 0.883 1.293 1.508 1.563 1.883-0.188-1.121-0.856-2.27-2-3.442-1.653-1.707-2.68-2.851-3.082-3.441l-0.641-0.238-0.16-0.039-0.078-0.043c-1.039 0-2.414-0.067-4.118-0.199-1.734-0.106-2.656-0.161-2.761-0.161-1.707 0-3.52 0.653-5.442 1.961-0.187 0.16-0.386 0.321-0.597 0.481-0.297 0.211-0.551 0.386-0.762 0.519-0.906 0.774-1.84 1.668-2.801 2.68l-0.398 0.922h0.078c1.519-0.055 2.867-0.469 4.043-1.242 0.211-0.133 0.426-0.266 0.637-0.403l-0.239-0.078 0.078-0.039 2.161-0.883c0.718-0.105 1.281-0.117 1.679-0.039 0.348 0 0.789 0.242 1.321 0.723l1.601-0.203c1.465-0.426 3.012-0.637 4.641-0.637 0.347 0 0.734 0.25 1.16 0.758 0.238 0.293 0.504 0.668 0.801 1.121-0.028 0.105-0.082 0.199-0.16 0.277l-0.161 0.043-0.839 0.2c-1.414 0.375-2.215 0.574-2.403 0.601 2.266 0.133 3.774 0.051 4.52-0.242zm-4.321 30.961c-0.21-0.586-0.492-1.133-0.839-1.641 0.027-0.187-0.133-0.398-0.481-0.64-0.64-0.504-2.051-1.2-4.238-2.079l-0.68-0.242c-0.426-0.133-0.75-0.226-0.961-0.277l-0.64-0.121-0.399-0.078-2.879-0.121c-0.883 0.105-1.761 0.414-2.64 0.918-1.629 0.906-3 2.363-4.121 4.363-0.188 0.476-0.305 0.812-0.36 1-0.105 0.293-0.16 0.613-0.16 0.957l0.121 0.762v0.238l0.078-0.078c0.133-0.16 0.414-0.426 0.84-0.801 0.481-0.398 0.789-0.641 0.922-0.719l0.519-0.203c0.692-0.637 1.227-1.012 1.598-1.117 0.59-0.402 1.453-0.68 2.602-0.84 0.746-0.16 1.265-0.359 1.558-0.601-0.426-0.266-0.906-0.399-1.437-0.399l-3.082 0.16 0.242-0.601 0.398-0.481c0.453-0.078 1.106-0.304 1.961-0.679 0.586-0.266 1.547-0.399 2.879-0.399 0.563 0 1.586 0.277 3.082 0.84-0.48 0.027-1.015 0.105-1.601 0.238-0.614 0.16-1.039 0.321-1.282 0.481 2.454 0.535 4.442 0.867 5.961 1 0.536 0.027 1.2 0.281 2 0.761l0.36 0.079c0.269 0.105 0.496 0.214 0.679 0.32zm-26.918-17.039c1.442-0.266 2.786-0.336 4.04-0.199 1.039 0.132 1.812 0.359 2.32 0.679-2.695-0.082-4.36-0.066-5 0.039l2.082-0.039c0.957 0 1.652 0.067 2.078 0.199 0.559 0.188 1.027 0.575 1.398 1.161l0.563 0.48 1.16 0.199c-0.402 0.133-0.746 0.121-1.043-0.039l1.242 1.039c0.321 0 0.586 0.149 0.801 0.442 0.211 0.316 0.32 0.703 0.32 1.16h1.278c0-1.707-0.453-3.176-1.36-4.402-0.906-1.2-2-1.801-3.281-1.801l-0.758-0.117c-0.773-0.055-1.945 0.011-3.519 0.199-0.746 0.265-1.52 0.597-2.321 1z" inkscape:connector-curvature="0"/>
      <path id="path24" style="fill-rule:evenodd;fill:#635b52" d="m33.68 6.522 2.84 3.199c-0.051-0.321-0.254-0.949-0.598-1.879-0.375-1.121-0.684-1.828-0.922-2.121-0.691-0.801-1.16-1.387-1.398-1.762 0.132 0.801 0.16 1.652 0.078 2.563zm-1-1.84-0.16-1.203c-1.145-0.211-1.985-0.321-2.52-0.321-0.508 0-1.719 0.082-3.641 0.242-2.16 0.161-3.933 0.332-5.32 0.52-1.172 0.535-2.117 1.547-2.84 3.039-0.16 0.375-0.293 0.762-0.398 1.16l-0.078 0.762 0.039 0.68c1.011-1.547 1.691-2.493 2.039-2.84 0.215-0.11 0.867-0.36 1.961-0.762 1.039-0.398 1.691-0.625 1.961-0.68 0.636-0.16 1.504-0.238 2.597-0.238h0.559c1.121-0.109 2.387-0.226 3.801-0.359 0.933-0.082 1.601-0.082 2 0zm-0.321 2.476c-0.347-0.16-0.867-0.238-1.558-0.238-0.641 0.027-0.989 0.039-1.039 0.039-0.297 0-0.563-0.172-0.801-0.519-0.215-0.293-0.75-0.415-1.602-0.36h-0.281c-1.332 0.055-2.289 0.027-2.879-0.082-0.32-0.156-0.597-0.332-0.84-0.516l-0.078 0.836c-0.828 1.016-1.801 1.989-2.922 2.922 1.922-1.308 3.735-1.961 5.442-1.961 0.105 0 1.027 0.055 2.761 0.161 1.704 0.132 3.079 0.199 4.118 0.199l-0.16-0.199-0.161-0.282zm-17.558 5.121 0.32 0.243 0.078 0.117h-0.039c0.133 0.695 0.332 1.336 0.602 1.922 0-0.161 0.011-0.336 0.039-0.52v-0.199l0.398-0.922c0.961-1.012 1.895-1.906 2.801-2.68-0.668 0.481-1.055 0.719-1.16 0.719-1.547 0-3.028-1.227-4.442-3.68-1.41-2.398-2.105-4.785-2.078-7.16-0.132 1.067-0.199 2.293-0.199 3.68 0 2.266 0.199 3.574 0.598 3.922 0.75 0.211 1.426 0.691 2.043 1.437 0.16 0.188 0.332 0.668 0.519 1.442 0.266 0.906 0.438 1.468 0.52 1.679zm16.078 9.68c-1.52-1.144-3.945-2.293-7.277-3.437-3.387-1.043-5.457-1.707-6.204-2-0.21-0.082-0.476-0.282-0.796-0.602 0.078 0.16 0.183 0.32 0.32 0.48 1.09 1.36 2.652 2.481 4.68 3.36 2.05 0.879 5.144 1.613 9.277 2.199zm-8.598 16.922c0-1.949-0.109-2.922-0.32-2.922h0.398c-0.023-0.453-0.425-1.227-1.199-2.32-0.133 0-0.254-0.078-0.359-0.239-0.106-0.132-0.16-0.308-0.16-0.519-0.266-1.762-0.375-3.707-0.321-5.84v-1.043c-0.797 4.137-1.211 6.43-1.238 6.883v0.68c-0.027-0.055-0.309-0.082-0.84-0.082-1.015 0-1.828 0.308-2.441 0.921-1.387 1.332-2.172 2.067-2.36 2.2-0.453 0.265-0.867 0.586-1.238 0.961-0.48 0.48-0.734 0.906-0.762 1.281 0.028 0.344 0.254 0.558 0.68 0.637l-0.039 0.441c0.133-0.105 0.387-0.387 0.758-0.84 0.535-0.586 1.308-1.265 2.32-2.039 0.348-0.16 0.922-0.359 1.723-0.601 0.746-0.215 1.16-0.321 1.238-0.321 0.188 0 0.602 0.055 1.242 0.16 0.477 0.082 0.84 0.082 1.078 0l0.161 0.68c-0.215 0.883-0.321 1.336-0.321 1.359-0.398-0.132-0.785-0.359-1.16-0.679-0.266-0.211-0.773-0.321-1.519-0.321-0.079 0-0.348 0.243-0.801 0.723-0.664 0.691-1.239 1.254-1.719 1.68-1.707 1.519-2.68 2.437-2.922 2.758-0.957 1.148-1.437 2.402-1.437 3.761 0 2.774 1.734 4.16 5.199 4.16 1.121 0 2.601-0.148 4.441-0.441 2.133-0.32 3.293-0.492 3.477-0.519-6.481-0.215-10.133-0.442-10.961-0.68l-0.758-0.961v-0.238c-0.133-0.215-0.199-0.36-0.199-0.442 0-0.664 0.199-1.426 0.598-2.277 1.121-2 2.492-3.453 4.121-4.363 0.879-0.504 1.757-0.813 2.64-0.918l2.879 0.121 0.121-0.801zm0.117 0.16-0.199 0.641 0.36 0.078 0.64 0.121c0.215 0.051 0.535 0.144 0.961 0.277l0.32 0.082c-0.8-0.508-1.492-0.906-2.082-1.199zm-0.238-5.281c0.028 0.398 0.094 0.855 0.199 1.359 0.133 0.481 0.2 0.774 0.2 0.879 0.375 0.109 0.773 0.363 1.203 0.762 0.476 0.426 0.84 0.707 1.078 0.84 0-1.067-0.254-1.973-0.762-2.719-0.531-0.746-1.172-1.121-1.918-1.121zm-9.441-9.559-0.117-0.121c-0.321-0.558-0.614-1.773-0.883-3.64-0.266-2.028-0.414-3.067-0.438-3.118l-0.32 0.758c-0.586 2.402-0.934 4.188-1.039 5.36 0.293 0.535 0.773 1.16 1.437 1.882l-0.437-0.082c-1.067-0.531-1.762-0.961-2.082-1.281-0.32-0.133-0.813-0.172-1.481-0.117-0.64 0.051-1.121 0.156-1.437 0.316l-0.16 0.16-0.16 0.282c1.492-0.078 2.503-0.078 3.039 0 0.906 0.16 1.586 0.574 2.039 1.242-0.774 0.211-1.227 0.437-1.36 0.68l0.758 0.117c1.281 0 2.375 0.601 3.281 1.801 0.907 1.226 1.36 2.695 1.36 4.402-5.332 0.133-8.785 0.172-10.36 0.117 0.696 0.563 2.719 0.867 6.082 0.922 1.973 0 3.254-0.149 3.84-0.441 0.559-0.266 0.84-0.825 0.84-1.68 0-0.293-0.094-0.746-0.281-1.36-0.188-0.668-0.281-1.066-0.281-1.199l-0.039 0.239c-1.172-3.415-1.774-5.161-1.801-5.239z" inkscape:connector-curvature="0"/>
      <path id="path26" style="fill-rule:evenodd;fill:#6d655a" d="m33.32 3.041 0.282 0.918c0.238 0.375 0.707 0.961 1.398 1.762 0-0.746-0.16-1.387-0.48-1.922-0.348-0.504-0.747-0.758-1.2-0.758zm-0.8 0.438c-0.375-0.934-0.692-1.532-0.961-1.797-1.118-0.375-2.039-0.563-2.758-0.563-2.535 1.176-4.293 1.762-5.281 1.762-0.188 0-0.598 0.133-1.243 0.398-0.664 0.266-1.078 0.481-1.238 0.641 1.387-0.188 3.16-0.359 5.32-0.52 1.918-0.16 3.133-0.242 3.641-0.242 0.535 0 1.375 0.11 2.52 0.321zm-14.719 4.64c0.105-0.398 0.238-0.785 0.398-1.16-0.531 0.801-0.84 1.281-0.918 1.441l0.52-0.281zm4.359 25.641c0.746 0 1.387 0.375 1.918 1.121 0.508 0.746 0.762 1.652 0.762 2.719 0.238 0.187 0.719 0.507 1.437 0.961 0.696 0.453 1.149 0.718 1.364 0.8l0.199-0.043c-0.906-3.277-1.36-4.933-1.36-4.957-0.402-0.586-1.613-0.894-3.64-0.921l0.238 0.16-0.918 0.16zm-3.082-0.879c-1.547 0-2.863 0.359-3.957 1.078-1.121 0.723-1.68 1.602-1.68 2.641 0.184-0.133 0.973-0.868 2.36-2.2 0.613-0.613 1.426-0.921 2.437-0.921 0.535 0 0.817 0.027 0.84 0.082v-0.68zm1.563 0c0 0.211 0.05 0.387 0.16 0.519 0.105 0.161 0.226 0.239 0.359 0.239l-0.281-0.719-0.238-0.039zm-8.719 7.879 0.078 0.64c0.188-0.242 0.375-0.48 0.559-0.718 0.961-1.282 1.828-2.496 2.601-3.641-1.015 0.774-1.785 1.453-2.32 2.039-0.371 0.453-0.625 0.735-0.762 0.84l0.043-0.441-0.199 1.281zm0.758-16.719-0.078 0.039 0.117 0.121-0.039-0.16zm0.961-0.121c0.078 0.238 0.32 0.734 0.718 1.48 0.243 0.481 0.36 0.989 0.36 1.52l-0.078 1.238 1.078 1.563c0-0.774-0.117-1.68-0.36-2.723-0.371-1.625-0.945-2.652-1.718-3.078zm-7.719 0.238c0.316-0.16 0.797-0.265 1.437-0.316 0.668-0.055 1.161-0.016 1.481 0.117 0.32 0.32 1.015 0.75 2.082 1.281l0.437 0.082c-0.664-0.722-1.148-1.347-1.437-1.882-0.215-0.188-0.59-0.282-1.121-0.282-1.36 0.348-2.321 0.684-2.879 1z" inkscape:connector-curvature="0"/>
    </g>
  </g>
<metadata><rdf:RDF><cc:Work><dc:format>image/svg+xml</dc:format><dc:type rdf:resource="http://purl.org/dc/dcmitype/StillImage"/><cc:license rdf:resource="http://creativecommons.org/licenses/publicdomain/"/><dc:publisher><cc:Agent rdf:about="http://openclipart.org/"><dc:title>Openclipart</dc:title></cc:Agent></dc:publisher></cc:Work><cc:License rdf:about="http://creativecommons.org/licenses/publicdomain/"><cc:permits rdf:resource="http://creativecommons.org/ns#Reproduction"/><cc:permits rdf:resource="http://creativecommons.org/ns#Distribution"/><cc:permits rdf:resource="http://creativecommons.org/ns#DerivativeWorks"/></cc:License></rdf:RDF></metadata></svg>
